<?xml version="1.0" standalone="no"?>
<!DOCTYPE svg PUBLIC "-//W3C//DTD SVG 20010904//EN"
 "http://www.w3.org/TR/2001/REC-SVG-20010904/DTD/svg10.dtd">
<svg version="1.0" xmlns="http://www.w3.org/2000/svg"
 width="700.000000pt" height="700.000000pt" viewBox="0 0 700.000000 700.000000"
 preserveAspectRatio="xMidYMid meet">
<metadata>
Created by potrace 1.11, written by Peter Selinger 2001-2013
</metadata>
<g transform="translate(0.000000,700.000000) scale(0.100000,-0.100000)"
fill="#000000" stroke="none">
<path d="M3431 6919 c-263 -328 -463 -790 -591 -1361 -16 -74 -30 -143 -30
-153 0 -9 -4 -15 -9 -13 -5 2 -49 59 -99 128 l-90 125 21 19 c12 10 31 24 41
32 24 16 21 21 -104 170 -204 244 -471 490 -670 619 -94 61 -250 148 -255 143
-2 -2 -19 -61 -39 -133 -61 -217 -79 -371 -80 -660 -1 -137 3 -285 7 -328 l9
-78 52 6 52 7 18 -139 c10 -76 20 -151 24 -168 5 -30 5 -30 -19 -13 -71 51
-290 184 -404 246 -332 181 -684 303 -978 338 l-57 6 0 -60 c0 -230 91 -592
230 -919 l52 -122 39 19 c21 11 44 20 51 20 7 0 31 -39 54 -86 l40 -85 -43
-26 c-24 -14 -43 -27 -43 -30 0 -10 91 -174 161 -289 219 -363 530 -773 815
-1074 l109 -115 -120 -5 -120 -5 -3 -617 -2 -618 162 -2 162 -3 102 -845 c57
-465 103 -846 103 -847 1 -2 503 -3 1116 -3 l1115 0 0 28 c0 16 3 63 6 105 l7
77 -877 0 c-482 0 -876 4 -876 8 0 14 -39 335 -45 365 l-4 27 184 0 185 0 0
110 0 110 -197 2 -197 3 -47 390 c-26 215 -50 409 -53 433 l-6 42 555 0 555 0
0 105 0 105 -715 0 -715 0 0 405 0 405 320 0 320 0 0 110 0 110 -179 0 -178 0
-99 103 c-593 615 -1069 1351 -1283 1982 -50 146 -97 322 -89 331 17 17 381
-165 590 -294 388 -239 725 -509 1083 -867 323 -322 568 -622 751 -918 63
-101 158 -279 169 -314 l6 -23 -285 0 -286 0 0 -110 0 -110 1260 0 1260 0 0
-405 0 -405 -865 0 -865 0 0 -105 0 -105 705 0 705 0 -1 -22 c0 -13 -39 -347
-88 -743 l-87 -720 -212 -3 -212 -2 0 -105 0 -105 305 0 c168 0 305 1 306 3 0
1 46 382 103 847 l102 845 162 3 162 2 -2 618 -3 617 -120 5 -120 5 109 115
c232 245 481 561 682 865 103 156 294 478 294 496 0 8 -165 99 -177 99 -5 -1
-46 -69 -93 -153 -245 -436 -575 -872 -974 -1284 l-138 -143 -549 0 c-329 0
-549 4 -549 9 0 5 37 83 83 173 387 767 1353 1705 2247 2181 87 46 282 137
294 137 7 0 -24 -146 -51 -240 -31 -112 -96 -292 -147 -407 -20 -45 -36 -85
-36 -90 0 -9 180 -96 186 -90 11 11 113 263 149 369 80 232 135 506 135 669 0
70 12 67 -161 38 -147 -25 -319 -73 -467 -130 -219 -85 -536 -253 -756 -402
-39 -25 -72 -45 -74 -43 -2 3 3 49 11 103 9 54 19 127 22 162 l7 63 53 -7 53
-6 9 78 c4 43 8 186 8 318 -1 301 -19 446 -87 690 -16 61 -31 111 -33 113 -5
6 -166 -85 -270 -154 -134 -88 -274 -205 -419 -350 -102 -102 -306 -335 -343
-390 -15 -23 -15 -26 3 -38 10 -8 29 -22 41 -32 l21 -19 -90 -125 c-50 -69
-93 -126 -97 -128 -4 -1 -13 28 -20 65 -17 94 -84 358 -119 473 -89 285 -226
596 -348 787 -57 89 -204 283 -214 282 -3 0 -34 -36 -69 -80z m271 -624 c238
-521 398 -1359 398 -2082 l0 -175 -72 -86 c-40 -48 -85 -103 -100 -122 l-28
-35 0 250 c0 389 -24 762 -67 1053 -15 106 -18 113 -37 108 -12 -2 -59 -10
-105 -17 l-83 -13 6 -45 c19 -136 37 -288 46 -385 19 -210 33 -683 27 -963 -5
-258 -7 -286 -25 -314 l-19 -31 -72 102 c-84 116 -197 260 -300 379 l-71 83 0
176 c0 655 125 1414 319 1935 58 157 123 300 131 290 3 -4 27 -53 52 -108z"/>
</g>
</svg>
